<svg width="523" height="490" viewBox="0 0 523 490" fill="none" xmlns="http://www.w3.org/2000/svg">
<path fill-rule="evenodd" clip-rule="evenodd" d="M36.8944 234.537C36.8944 234.537 14.6651 215.548 45.8513 149.983C77.0374 84.4186 140.195 98.7893 180.565 73.0003C240.214 34.8959 215.765 5.07634 290.142 0.269718C383.789 -5.78219 389.092 92.0171 435.945 92.0171C439.026 92.0171 511.984 62.7016 522.663 142.954C528.041 183.37 435.945 245.002 435.945 245.002C435.945 245.002 397.615 279.745 395.51 296.902C386.682 368.852 405.091 451.26 198.789 489.197C172.108 494.104 127.804 476.356 103.362 443.572C84.213 417.887 7.39973 436.11 0.229422 351.669C-3.38456 309.108 36.8944 234.537 36.8944 234.537Z" fill="#64FCD9"/>
<path d="M174.504 177.491C175.2 177.08 176.096 177.311 176.507 178.007L178.163 180.801C184.738 191.832 187.368 195.414 190.163 197.034C192.46 198.365 194.836 197.952 199.184 195.402L199.765 195.053C202.499 193.349 215.013 184.752 219.852 181.666C220.533 181.231 221.437 181.431 221.871 182.112C222.306 182.793 222.106 183.698 221.425 184.132L220.68 184.611C215.289 188.107 203.177 196.425 201.033 197.707C195.768 200.855 192.355 201.562 188.935 199.699L188.696 199.565C185.022 197.436 182.164 193.352 173.987 179.494C173.577 178.798 173.808 177.901 174.504 177.491Z" fill="white"/>
<path d="M198.192 194.398C198.992 194.291 199.728 194.853 199.835 195.654C200.334 199.375 201.527 203.106 203.421 206.851C203.786 207.572 203.497 208.452 202.776 208.816C202.055 209.181 201.175 208.892 200.811 208.171C198.772 204.141 197.479 200.097 196.936 196.042C196.829 195.242 197.391 194.506 198.192 194.398Z" fill="white"/>
<path fill-rule="evenodd" clip-rule="evenodd" d="M368.596 283.737C368.36 284.334 367.843 285.161 367.242 285.943L367.76 286.48L368.36 287.119L368.493 287.247C368.551 287.299 368.597 287.33 368.63 287.339C368.824 287.367 368.96 287.546 368.933 287.741C368.905 287.932 368.727 288.07 368.533 288.042C368.357 288.038 367.719 287.789 366.958 287.171C366.821 287.059 366.683 286.93 366.544 286.788C366.105 287.278 365.662 287.699 365.279 287.96C364.715 288.349 364.227 288.38 363.994 288.222C363.765 288.069 363.545 287.554 363.918 286.513C363.976 286.324 364.177 286.225 364.363 286.284C364.549 286.343 364.652 286.541 364.593 286.729C364.536 286.922 364.529 287.099 364.528 287.24L364.744 287.093C364.821 287.038 364.899 286.976 364.971 286.904C365.232 286.647 365.524 286.334 365.817 285.996C365.353 285.456 364.88 284.823 364.497 284.092C364.31 283.735 364.161 283.357 364.02 282.959C363.922 282.737 364.023 282.476 364.246 282.377C364.469 282.279 364.73 282.381 364.828 282.603C365.253 283.496 365.798 284.265 366.336 284.924L366.515 285.139C367.004 284.499 367.425 283.851 367.616 283.357C367.721 283.088 368.027 282.954 368.296 283.057C368.568 283.164 368.702 283.468 368.596 283.737Z" fill="white"/>
<path fill-rule="evenodd" clip-rule="evenodd" d="M150.954 99.2101L150.062 99.0487C145.084 98.1231 141.267 96.9868 134.136 94.5145C133.318 94.231 132.885 93.3382 133.168 92.5204C133.452 91.7027 134.345 91.2696 135.163 91.5531L136.94 92.1647C143.195 94.2995 146.705 95.2782 151.498 96.1234C167.628 98.9674 179.704 90.6865 180.692 74.8936C180.747 74.0298 181.491 73.3733 182.354 73.4273C183.218 73.4814 183.875 74.2255 183.821 75.0893C182.709 92.8508 168.837 102.363 150.954 99.2101Z" fill="#00160A"/>
<path fill-rule="evenodd" clip-rule="evenodd" d="M191.257 116.123L192.157 118.123L194.208 118.712C194.319 118.744 194.383 118.86 194.352 118.97C194.342 119.005 194.323 119.036 194.298 119.061L192.739 120.613L192.827 122.846C192.831 122.961 192.741 123.058 192.626 123.063C192.587 123.064 192.549 123.055 192.515 123.035L190.75 122.03C190.695 121.999 190.628 121.994 190.569 122.018L188.682 122.767C188.575 122.81 188.453 122.758 188.411 122.65C188.396 122.614 188.392 122.574 188.399 122.536L188.797 120.337L187.469 118.583C187.399 118.491 187.418 118.36 187.51 118.291C187.538 118.269 187.571 118.255 187.607 118.25L189.72 117.953L190.89 116.098C190.951 116 191.08 115.971 191.178 116.032C191.213 116.054 191.24 116.086 191.257 116.123Z" fill="#00160A"/>
<path d="M397.407 65.8584C398.212 65.801 398.912 66.4076 398.97 67.2133C399.027 68.0191 398.421 68.7189 397.615 68.7764C391.843 69.1882 387.31 71.4249 385.296 76.9578C385.175 77.2908 385.074 77.6123 384.993 77.9178L384.938 78.1277L385.027 77.9434C387.562 72.7663 392.452 69.1691 398.12 68.2562L398.49 68.2005C399.29 68.0888 400.029 68.6468 400.141 69.4469C400.253 70.247 399.695 70.9861 398.895 71.0978C393.63 71.8326 389.127 75.3315 387.162 80.3499L387.035 80.6868C386.101 83.2517 383.86 84.4817 382.418 82.2866C381.538 80.9477 381.596 78.5699 382.547 75.9572C384.959 69.3302 390.494 66.3516 397.407 65.8584Z" fill="white"/>
<path d="M390.744 54.9614C391.55 54.9039 392.25 55.5105 392.307 56.3163C392.365 57.122 391.758 57.8219 390.952 57.8793C381.771 58.5344 373.72 64.497 370.517 73.2983C369.567 75.9073 369.39 78.138 369.73 79.2676L369.772 79.3937L369.837 79.3004C370 79.0527 370.184 78.6969 370.364 78.2355L370.441 78.0313C373.825 68.7348 382.029 62.2242 391.651 60.8811C392.451 60.7694 393.19 61.3274 393.302 62.1275C393.414 62.9276 392.856 63.6667 392.055 63.7783C383.638 64.9533 376.443 70.5711 373.344 78.6205L373.19 79.0319C371.935 82.4793 369.222 83.9686 367.487 81.3288C366.299 79.5199 366.382 76.105 367.768 72.2978C371.369 62.4024 380.422 55.6978 390.744 54.9614Z" fill="white"/>
<path d="M381.765 40.4318C382.571 40.3743 383.271 40.9809 383.329 41.7867C383.386 42.5924 382.779 43.2922 381.974 43.3497C368.878 44.284 357.395 52.7885 352.826 65.3417C351.271 69.6138 351.142 73.2347 351.991 74.7398L352.068 74.867C352.194 75.0584 352.152 75.064 352.184 75.0376L352.204 75.0248C352.634 74.7887 353.202 73.9841 353.721 72.6497L353.824 72.3757C358.491 59.5543 369.805 50.5755 383.076 48.7231C383.876 48.6114 384.615 49.1694 384.727 49.9695C384.838 50.7696 384.28 51.5087 383.48 51.6204C371.43 53.3024 361.136 61.369 356.743 72.9186L356.573 73.3763C354.95 77.8367 351.694 79.6237 349.624 76.4735C348.08 74.1249 348.193 69.5197 350.077 64.3411C355.045 50.6939 367.529 41.4474 381.765 40.4318Z" fill="white"/>
<path d="M365.737 26.7768C366.53 26.6215 367.298 27.1383 367.454 27.9311C367.609 28.7238 367.092 29.4923 366.299 29.6476C354.444 31.9693 344.911 41.0242 342.145 53.0013C341.21 57.0548 341.493 60.3507 342.411 61.6081L342.533 61.7658L342.543 61.7877L342.56 61.7745C342.888 61.4777 343.273 60.7196 343.571 59.5443L343.633 59.2861C346.477 46.968 355.869 37.433 367.864 34.2309C368.644 34.0225 369.446 34.4863 369.654 35.2668C369.863 36.0473 369.399 36.8489 368.618 37.0573C357.811 39.9422 349.32 48.4506 346.596 59.4768L346.484 59.9442C345.481 64.2886 342.601 66.3625 340.268 63.6124C338.562 61.601 338.143 57.333 339.295 52.3432C342.322 39.2316 352.76 29.3183 365.737 26.7768Z" fill="white"/>
<path d="M203.595 207.173L204.439 206.866C212.42 204.002 219.153 202.739 220.864 204.479C222.364 206.005 223.7 208.769 224.968 212.823C225.209 213.594 224.779 214.414 224.008 214.655C223.237 214.896 222.416 214.466 222.175 213.695C221.08 210.19 219.961 207.83 218.904 206.664L218.86 206.618L218.823 206.62C218.622 206.579 218.322 206.558 217.94 206.566C217.097 206.582 215.945 206.731 214.569 207.003C211.738 207.564 208.16 208.607 204.607 209.918C198.667 212.109 193.718 214.684 190.984 217.01C189.98 217.864 188.147 215.485 189.911 214.123C193.084 211.671 197.896 209.275 203.595 207.173Z" fill="white"/>
<path d="M199.579 179.541C199.579 184.42 204.739 189.703 205.836 190.003C206.616 190.216 193.192 198.963 193.192 198.963C188.341 199.601 185.493 195.501 185.493 189.394C185.493 188.586 199.579 178.733 199.579 179.541Z" fill="white"/>
<path fill-rule="evenodd" clip-rule="evenodd" d="M183.75 182.105C185.449 181.775 186.604 180.359 186.328 178.943C186.053 177.527 184.452 176.647 182.753 176.977C181.054 177.307 179.9 178.723 180.175 180.139C180.45 181.555 182.051 182.435 183.75 182.105Z" fill="#FFB61D"/>
<path d="M356.89 18.6655C357.685 18.5269 358.443 19.0597 358.582 19.8555C358.72 20.6513 358.187 21.4089 357.392 21.5475C353.606 22.2068 349.79 24.4978 345.854 28.1419C340.744 32.8738 337.369 39.4122 335.508 48.1298C334.009 55.1534 335.392 63.9297 339.312 71.6448C343.77 80.4224 351.658 82.5918 360.856 84.2717C370.297 85.9962 372.907 84.9312 381.828 81.7595L382.649 81.4612C383.869 80.9993 389.57 78.7687 390.94 78.3542C393.825 77.4819 395.792 77.5549 397.219 79.0753C397.772 79.6643 397.742 80.59 397.153 81.1428C396.601 81.661 395.753 81.6676 395.194 81.181L395.086 81.0771C394.665 80.6286 393.795 80.5766 392.043 81.0788L391.787 81.1543C390.469 81.553 384.286 83.9795 383.486 84.2717C373.849 87.7892 370.581 89.0218 360.33 87.1494C350.172 85.294 341.553 82.5163 336.703 72.9697C332.489 64.673 331.004 55.2169 332.647 47.5191C334.633 38.2149 338.312 31.1392 343.867 25.9954C348.215 21.9689 352.547 19.4218 356.89 18.6655Z" fill="white"/>
<path d="M425.699 135.052C417.361 134.626 410.795 141.066 410.726 149.711C410.668 156.995 414.77 162.993 420.406 164.155C422.685 164.624 427.061 164.059 430.306 162.239C435.235 159.596 439.002 154.163 439.477 149.533C440.251 141.99 434.145 135.484 425.699 135.052Z" fill="white"/>
<path d="M274.6 133.529C277.264 138.909 281.399 151.334 279.611 151.274C274.642 151.108 267.994 143.471 263.344 133.146L262.977 132.315C258.916 122.94 256.485 117.051 259.309 115.922C262.229 114.755 269.103 122.427 274.6 133.529Z" fill="white"/>
<path fill-rule="evenodd" clip-rule="evenodd" d="M259.309 115.805C262.229 114.638 269.204 121.959 274.701 133.061C277.365 138.441 279.171 143.601 279.643 147.302C279.643 147.302 270.648 128.349 265.162 121.407C263.054 118.74 259.309 115.805 259.309 115.805Z" fill="#E7EAEE"/>
<path d="M257.776 163.537C257.991 162.758 258.796 162.301 259.575 162.515C260.354 162.729 260.811 163.534 260.597 164.313C260.321 165.315 256.447 167.943 247.993 173.154L242.658 176.42C232.124 182.832 225.095 186.936 224.216 186.936C218.4 186.936 213.159 181.449 209.333 172.792C205.992 165.233 204.257 156.235 205.04 150.339C205.285 148.498 211.416 143.734 220.884 137.351L222.24 136.443C230.615 130.863 237.775 126.725 240.365 126.202C241.157 126.042 241.928 126.555 242.088 127.347C242.188 127.842 219.101 147.302 216.846 160.218C215.319 168.964 221.092 183.869 223.957 184.004L224.216 184.01C223.983 184.01 224.058 183.956 224.085 183.941L224.349 183.805C224.543 183.703 224.774 183.578 225.039 183.432L226.256 182.752C226.722 182.488 227.241 182.191 227.808 181.863L229.26 181.02C232.032 179.402 235.49 177.341 239.017 175.207L242.371 173.168C246.451 170.675 250.136 168.377 252.907 166.593L254.334 165.665C255.217 165.086 255.964 164.584 256.561 164.168L256.778 164.016C257.107 163.784 257.381 163.584 257.594 163.421C257.594 163.421 257.835 163.325 257.776 163.537Z" fill="white"/>
<path fill-rule="evenodd" clip-rule="evenodd" d="M260.676 134.347C257.142 126.499 255.58 119.307 256.764 114.952C254.625 115.632 251.952 116.853 249.298 118.376C245.77 120.4 242.97 122.662 242.905 123.153C242.223 128.286 244.84 138.273 249.189 147.176C253.841 156.7 259.376 162.817 263.66 162.817C264.07 162.817 265.244 162.575 266.421 162.163C268.094 161.579 269.662 160.727 270.947 159.611C271.586 159.056 272.247 158.429 272.937 157.729L273.769 156.869C274.26 156.35 274.766 155.792 275.557 154.906L276.657 153.677L276.705 153.625C271.193 151.611 265.429 144.512 261.117 135.306L260.676 134.347ZM240.005 122.768C240.46 119.343 253.281 111.941 259.132 111.463C259.376 111.309 259.638 111.176 259.918 111.065C264.984 109.04 272.705 117.713 278.898 129.916L279.323 130.764C282.118 136.409 284.026 141.857 284.545 145.932C285.166 150.802 283.756 154.03 280.059 154.195C279.96 154.579 279.71 154.9 279.378 155.093L279.321 155.122L279.176 155.266C279.032 155.415 278.861 155.6 278.597 155.893L276.78 157.922C276.12 158.649 275.653 159.142 275.02 159.783C274.28 160.534 273.565 161.212 272.865 161.819C270.034 164.279 265.847 165.742 263.66 165.742C262.5 165.742 261.327 165.472 260.152 164.957C258.897 166.267 255.033 168.815 247.994 173.154L242.658 176.42C232.124 182.832 225.095 186.936 224.216 186.936C222.224 186.936 220.3 186.292 218.477 185.098C218.46 185.11 218.443 185.121 218.425 185.132L217.68 185.612C215.089 187.292 210.945 190.086 207.101 192.677L207.1 192.678L206.861 192.84C207.358 196.392 208.49 199.953 210.259 203.527C216.541 201.585 221.518 200.928 222.954 202.389C224.453 203.916 225.79 206.679 227.057 210.733C227.298 211.504 226.869 212.325 226.098 212.566C225.327 212.807 224.506 212.377 224.265 211.606C223.169 208.1 222.051 205.741 220.994 204.574L220.95 204.529L220.912 204.531C220.712 204.49 220.412 204.469 220.03 204.476C219.187 204.493 218.034 204.641 216.659 204.914C213.828 205.475 210.25 206.518 206.697 207.829C198.575 210.825 192.307 214.537 191.019 217.35C190.642 218.174 190.69 219.379 191.141 221.224L191.225 221.556C191.292 221.818 191.363 222.077 191.455 222.405L191.984 224.274L192.006 224.358C192.021 224.415 192.037 224.475 192.055 224.545C192.258 225.327 191.788 226.125 191.006 226.328C190.225 226.531 189.426 226.062 189.223 225.28L188.964 224.334L188.531 222.807C188.481 222.627 188.437 222.46 188.393 222.29C187.708 219.648 187.597 217.796 188.359 216.132C189.651 213.312 193.691 210.39 199.316 207.734L198.093 204.573L197.791 203.774C197.327 202.528 196.788 200.838 196.457 199.605C192.063 201.974 189.002 202.37 185.935 200.7L185.696 200.565C185.09 200.214 184.506 199.809 183.916 199.316L166.773 209.729C166.932 210.072 167.093 210.418 167.256 210.767C168.025 212.417 166.669 213.585 164.588 214.494L164.363 214.589C162.575 215.33 160.961 215.5 160 214.445C156.014 210.07 151.794 199.603 154.064 197.209C154.5 196.75 155.651 196.065 157.827 194.924L158 194.834C158.045 194.803 158.091 194.774 158.14 194.748L174.165 186.066C174.202 186.046 174.239 186.028 174.277 186.011C173.287 184.375 172.202 182.552 171.002 180.519C170.82 180.225 170.752 179.88 170.798 179.549C170.828 179.338 170.903 179.132 171.024 178.949C171.09 178.847 171.169 178.753 171.261 178.67C174.556 175.545 179.045 172.287 184.677 168.779L185.359 168.356C187.797 166.854 192.74 164.034 196.939 161.639C200.197 159.781 203.007 158.179 203.853 157.643L204.058 157.508C204.364 157.284 204.728 157.196 205.077 157.234C204.799 154.696 204.775 152.339 205.041 150.338C205.285 148.498 211.417 143.734 220.884 137.351L222.24 136.442C230.175 131.156 237.018 127.164 239.919 126.314C239.841 125.004 239.867 123.811 240.005 122.768ZM240.239 129.28C237.398 130.319 230.283 134.543 222.519 139.777L221.276 140.62C217.782 143.004 214.554 145.329 212.116 147.223L211.439 147.754C210.351 148.616 209.471 149.359 208.832 149.955C208.512 150.254 208.26 150.51 208.082 150.713L207.957 150.86C207.93 150.888 207.923 150.877 207.933 150.785L207.941 150.724C207.937 150.747 207.935 150.768 207.933 150.785L207.894 151.099C206.488 163.443 215.414 183.602 223.957 184.004L224.158 184.009C224.175 184.01 224.194 184.01 224.216 184.01L224.158 184.009C223.997 184 224.06 183.954 224.085 183.941L224.349 183.805C224.543 183.703 224.774 183.578 225.039 183.432L226.257 182.752C226.722 182.488 227.241 182.191 227.808 181.863L229.26 181.02C232.032 179.402 235.49 177.341 239.017 175.207L242.372 173.168C246.451 170.675 250.137 168.377 252.907 166.592L254.334 165.665C255.218 165.086 255.964 164.584 256.561 164.168L256.778 164.016C257.094 163.793 257.359 163.6 257.569 163.44C253.801 160.675 250.091 155.569 246.798 148.941L246.561 148.46C243.387 141.963 241.091 134.926 240.239 129.28ZM205.481 160.07C204.425 160.734 201.312 162.512 197.848 164.49C193.743 166.834 189.145 169.459 186.895 170.847C181.579 174.124 177.291 177.162 174.109 180.023L175.163 181.801C179.776 189.54 182.447 193.613 184.595 195.914C183.882 194.221 183.512 192.072 183.512 189.378C183.512 189.254 183.527 189.133 183.556 189.018C183.414 188.458 183.614 187.842 184.109 187.479L185.105 186.739C185.703 186.287 186.686 185.536 187.804 184.681C190.25 182.812 193.341 180.45 194.444 179.66C197.913 177.175 200.469 175.781 202.798 175.297C203.91 175.066 204.773 175.724 205.024 176.742L205.065 176.928C205.123 177.231 205.134 177.529 205.133 178.181L205.132 178.387C205.12 180.821 205.361 182.226 206.392 183.848C207.097 184.958 208.134 185.971 209.578 186.879C209.729 186.974 209.857 187.092 209.959 187.225C212.289 185.661 214.472 184.206 216.081 183.162C213.545 180.706 211.259 177.151 209.333 172.792C207.538 168.732 206.207 164.256 205.481 160.07ZM281.643 146.302C281.171 142.601 279.365 137.441 276.701 132.062C271.204 120.959 263.923 112.614 261.003 113.781C258.18 114.909 258.917 122.94 262.977 132.315L263.344 133.146C267.994 143.471 274.642 151.108 279.611 151.274C281.4 151.334 282.099 149.873 281.643 146.302ZM175.788 188.484C178.325 192.587 180.179 195.297 181.794 197.182L165.543 207.053C163.878 203.404 162.389 200.007 160.944 196.556L175.558 188.638C175.641 188.593 175.718 188.541 175.788 188.484ZM207.454 204.45C205.877 201.188 204.787 197.918 204.189 194.64C202.089 196.053 200.261 197.277 199.087 198.04C199.288 199.049 200.036 201.444 200.68 203.148L201.88 206.238L201.995 206.539C203.175 206.041 204.407 205.555 205.685 205.084L206.529 204.777C206.839 204.665 207.148 204.556 207.454 204.45ZM207.401 188.946C205.904 187.908 204.755 186.726 203.923 185.417C202.576 183.297 202.222 181.486 202.207 178.751L202.206 178.506L201.999 178.584C200.516 179.16 198.746 180.201 196.522 181.771L196.147 182.038C195.089 182.796 192.075 185.099 189.645 186.956L189.644 186.957C188.293 187.989 187.122 188.884 186.568 189.299L186.437 189.396C186.44 194.262 187.655 196.495 189.914 197.578L190.094 197.661C190.633 197.9 191.017 198.019 192.115 198.32C192.137 198.326 192.158 198.332 192.18 198.339C193.319 197.956 194.625 197.317 196.184 196.402L196.765 196.053C198.053 195.251 201.509 192.92 205.311 190.356C206 189.891 206.701 189.419 207.401 188.946ZM158.359 197.955L158.583 198.489C160.136 202.172 161.751 205.82 163.583 209.798L164.295 211.342C164.062 211.499 163.755 211.665 163.417 211.813C162.932 212.025 162.44 212.173 162.07 212.223L161.952 212.235L161.774 212.021C160.389 210.317 158.782 207.42 157.621 204.54C157.002 203.006 156.561 201.599 156.363 200.518C156.282 200.077 156.245 199.707 156.248 199.427L156.256 199.242C156.259 199.197 156.259 199.173 156.248 199.17L156.292 199.14C156.539 198.97 157.171 198.6 158.109 198.09L158.359 197.955ZM178.536 194.732C177.97 194.156 177.044 194.147 176.467 194.712C175.453 195.707 174.031 196.634 171.548 198.013L169.022 199.415C168.354 199.795 167.808 200.123 167.313 200.444C166.899 200.712 166.529 200.971 166.197 201.228C165.558 201.722 165.44 202.641 165.934 203.28C166.428 203.919 167.347 204.037 167.986 203.543C168.25 203.339 168.555 203.125 168.905 202.898C169.228 202.689 169.583 202.471 169.994 202.231L170.799 201.77L173.366 200.348C175.832 198.964 177.318 197.976 178.516 196.801C179.092 196.235 179.101 195.309 178.536 194.732Z" fill="#00160A"/>
<path d="M145.817 343.27C153.132 384.051 180.547 414.709 215.529 421.937C221.951 423.264 233.07 423.438 244.584 421.948C259.419 420.028 273.857 415.624 286.554 408.486C321.435 389.739 347.903 351.479 351.333 317.987C354.347 288.567 343.107 261.389 322.761 242C322.761 242 258.846 273.393 227.47 291.237C200.168 306.764 145.817 343.27 145.817 343.27Z" fill="white"/>
<path d="M294.668 221.658C281.557 215.19 265.132 210.08 249.025 209.256C189.953 206.236 143.493 253.427 143.009 314.295C143.009 314.295 208.94 272.3 243.193 252.038C260.234 241.957 294.668 221.658 294.668 221.658Z" fill="white"/>
<path fill-rule="evenodd" clip-rule="evenodd" d="M416.172 190.637C415.974 200.806 405.212 217.733 387.914 236.887C375.383 250.762 360.801 264.174 348.575 273.211L347.814 273.769L348.319 276.015C351.293 289.045 355.174 303.21 353.707 317.495C350.148 352.165 323.029 391.281 287.193 410.499C274.122 417.832 259.265 422.354 244.026 424.322L242.573 424.501C231.21 425.84 220.336 425.618 213.691 424.248C187.898 418.93 166.061 400.9 152.859 374.805C152.814 374.718 152.779 374.628 152.754 374.536C151.016 375.528 148.678 376.636 147.61 376.998L144.684 377.987C113.151 388.593 81.8905 397.466 69.12 391.928C64.2585 389.82 62.5968 385.765 64.63 380.318C66.6058 375.024 72.0843 368.203 81.2758 359.714L81.7809 359.249C90.4905 351.265 109.832 336.676 139.806 315.481L139.814 315.092C141.276 252.29 190.058 204.415 251.376 208.323C270.131 209.518 285.068 216.183 292.527 220.276L295.808 218.515C326.578 202.062 351.267 190.497 370.105 183.575C401.084 172.191 416.404 177.513 416.172 190.637ZM371.114 190.321C336.474 203.05 281.729 231.679 205.508 277.73L203.192 279.131C143.84 315.06 104.539 342.356 83.7576 361.405L82.7334 362.351L81.7623 363.262C66.1623 378.001 63.3972 386.258 70.2839 389.244C82.0729 394.357 113.732 385.738 144.735 375.569L147.61 374.621C150.374 373.705 152.208 373.179 153.343 372.936C153.392 372.901 153.446 372.869 153.503 372.84C153.891 372.644 154.325 372.637 154.7 372.784C154.781 372.8 154.834 372.825 154.862 372.86C155.115 372.997 155.329 373.209 155.469 373.485C168.285 398.817 189.404 414.254 214.281 419.383C220.739 420.714 231.634 420.909 242.97 419.507L243.651 419.421C258.54 417.498 273.041 415.084 285.786 407.935C320.806 389.154 347.339 350.883 350.797 317.196C352.275 302.799 350.389 288.667 345.375 275.514C344.961 275.803 344.551 276.087 344.144 276.365C343.374 276.89 343.661 276.039 345.005 273.814C345.077 273.524 345.237 273.259 345.467 273.061L345.881 272.405C346.026 272.176 346.179 271.939 346.338 271.691L348.072 270.229C364.412 256.409 376.968 244.642 385.743 234.926L386.744 233.811C402.979 215.644 413.07 199.596 413.237 190.583C413.419 180.695 400.374 179.568 371.114 190.321ZM224.235 375.301C228.16 387.296 222.223 395.011 211.771 395.41C202.114 395.778 193.321 389.693 193.769 381.046C194.156 373.573 199.273 365.583 205.573 362.65C213.192 359.101 220.343 363.406 224.235 375.301ZM207.117 365.965C202.075 368.312 197.74 375.082 197.421 381.235C197.103 387.364 203.877 392.051 211.632 391.756C219.739 391.446 223.901 386.038 220.76 376.438C217.489 366.443 212.517 363.45 207.117 365.965ZM304.029 350.859C309.036 360.321 307.725 369.617 300.025 373.783L299.81 373.897L299.698 374.009C289.372 384.233 276.473 385.474 268.061 378.063L267.773 377.804C258.083 368.927 260.391 353.678 275.81 341.723C285.732 334.03 297.853 339.189 304.029 350.859ZM277.73 344.2C263.733 355.053 261.765 368.05 269.89 375.492C275.717 380.83 284.326 381.125 292.367 375.945L292.524 375.84L292.466 375.828C291.909 375.681 291.462 375.232 291.336 374.646L291.311 374.497C291.209 373.638 291.823 372.859 292.682 372.757C294.648 372.524 296.355 372.049 297.802 371.37L297.999 371.273L298.239 371.025C299.182 370.032 300.104 368.952 300.997 367.783L301.293 367.39C301.628 366.941 302.157 366.723 302.677 366.765L302.717 366.769L302.738 366.73C304.616 363.019 304.171 357.992 301.423 352.64L301.258 352.325C295.888 342.177 285.85 337.904 277.73 344.2ZM370.94 231.724C370.135 234.586 367.683 238.513 363.925 243.164C357.374 251.271 347.533 260.707 338.931 267.16L340.84 265.061C340.821 265.045 340.805 265.022 340.791 264.997L340.132 263.787C335.828 255.93 331.032 248.18 323.282 241.862C303.221 250.133 280.219 261.439 259.262 273.261L252.393 277.144C201.808 305.799 175.193 322.954 146.734 344.044C147.808 348.881 149.161 353.602 150.783 358.176C151.037 358.894 147.713 361.58 147.105 361.248C141.427 365.052 132.537 367.815 127.476 367.959C122.543 368.099 119.693 366.102 121.161 362.121C122.389 358.79 127.016 354.039 135.342 347.673L136.291 346.953L138.21 345.511C169.545 322.051 200.566 303.014 257.825 270.713L260.221 269.369C299.493 247.447 344.97 227.698 365.801 225.876C370.082 225.501 372.024 227.87 370.94 231.724ZM142.923 346.882L136.358 351.836C130.501 356.277 126.279 359.561 123.998 361.668L123.831 361.824C121.047 364.435 124.198 365.125 127.393 365.035C132.232 364.898 139.646 361.228 145.921 357.888C144.761 354.295 143.76 350.622 142.923 346.882ZM245.617 331C246.4 331.198 246.873 331.994 246.675 332.777C246.476 333.56 245.68 334.034 244.897 333.835C240.964 332.836 238.64 333.22 237.886 334.279C237.386 334.982 237.663 336.18 238.598 336.945C239.329 337.543 240.302 337.828 240.972 337.683C241.554 337.556 241.88 337.107 241.88 335.984C241.88 335.176 242.535 334.521 243.343 334.521C244.151 334.521 244.805 335.176 244.805 335.984C244.805 338.426 243.583 340.108 241.594 340.541C239.995 340.889 238.131 340.342 236.746 339.209C234.701 337.536 234.033 334.648 235.503 332.583C237.114 330.319 240.644 329.737 245.617 331ZM181.365 325.63C183.621 326.306 184.592 328.038 184.899 330.636L184.929 330.918L184.966 331.346C184.972 331.417 184.977 331.49 184.982 331.568L185.058 333.053L185.081 333.388C185.093 333.535 185.106 333.655 185.121 333.762L185.16 333.985L185.184 334.084L185.225 334.12C185.676 334.562 185.796 335.255 185.504 335.827L185.43 335.957C184.992 336.636 184.086 336.831 183.408 336.393C182.473 335.791 182.261 335.171 182.148 333.392L182.055 331.65C182.044 331.493 182.033 331.357 182.018 331.203C181.851 329.499 181.436 328.705 180.526 328.432C177.971 327.667 176.504 328.448 176.04 330.156C175.626 331.678 176.225 333.277 177.273 333.721L177.539 333.82C178.224 334.113 178.587 334.884 178.356 335.609C178.11 336.378 177.288 336.803 176.518 336.558C173.732 335.67 172.409 332.361 173.217 329.388C174.119 326.071 177.256 324.399 181.365 325.63ZM286.894 303.233C290.944 308.927 290.191 316.173 283.692 319.451C282.971 319.815 282.091 319.526 281.727 318.804C281.364 318.083 281.653 317.203 282.374 316.84C287.08 314.466 287.617 309.297 284.51 304.928C281.491 300.684 277.289 300.218 274.402 304.803C271.341 309.665 271.563 312.518 273.767 313.803C275.517 314.824 278.334 314.609 279.109 313.775L279.184 313.684C279.652 313.026 280.565 312.872 281.223 313.34C281.882 313.809 282.035 314.722 281.567 315.38C279.941 317.664 275.301 318.084 272.293 316.331C268.444 314.086 268.075 309.36 271.926 303.245C276.05 296.696 282.776 297.443 286.894 303.233ZM226.25 294.845C227.01 294.845 227.635 295.426 227.706 296.167L227.712 296.308C227.712 296.566 227.952 296.853 228.81 297.483L229.622 298.066C230.508 298.711 230.935 299.112 231.338 299.75C232.26 301.208 232.783 302.693 232.783 304.439C232.783 308.909 226.067 314.989 218.737 317.695C209.95 320.938 202.75 318.533 200.791 309.516C200.62 308.726 201.121 307.947 201.91 307.776C202.7 307.604 203.478 308.105 203.65 308.895C205.17 315.893 210.42 317.646 217.724 314.95C224.032 312.622 229.858 307.348 229.858 304.439C229.858 303.313 229.515 302.341 228.866 301.314L228.777 301.19C228.628 301.002 228.396 300.798 227.976 300.487L227.012 299.792C225.408 298.61 224.787 297.812 224.787 296.308C224.787 295.5 225.442 294.845 226.25 294.845ZM233.116 213.773L232.192 213.877C182.28 219.88 144.836 259.801 142.794 313.372L148.15 309.604C163.521 298.814 181.363 286.489 201.677 272.628L205.635 270.236C217.451 263.107 228.75 256.398 239.536 250.104C239.339 249.759 239.284 249.335 239.417 248.928C240.171 246.626 240.868 245.079 242.145 243.53C246.141 238.682 251.617 236.314 255.496 239.358C255.878 239.658 256.07 240.109 256.055 240.56L259.501 238.594C270.351 232.417 280.619 226.712 290.309 221.472L286.524 220.395C280.911 218.815 273.928 216.941 266.973 215.499C267.036 220.127 263.571 223.823 257.815 226.366C252.922 228.527 246.545 229.69 242.011 229.419C233.529 228.914 228.755 221.474 233.116 213.773ZM320.671 277.295C324.25 287.074 321.297 295.967 312.36 295.909C299.626 295.826 287.191 284.707 289.201 274.746C290.098 270.303 293.438 266.372 299.247 264.41C308.524 261.277 317.027 267.34 320.671 277.295ZM300.183 267.182C295.382 268.803 292.763 271.886 292.068 275.325C290.473 283.231 301.299 292.911 312.379 292.984C318.725 293.025 320.908 286.453 317.924 278.301C314.766 269.674 307.707 264.641 300.183 267.182ZM192.628 232.555L192.732 232.706L193.436 233.825C193.781 234.394 194.09 234.951 194.384 235.553C197.623 242.176 197.54 250.859 192.058 262.912C189.574 268.372 183.247 275.71 177.722 280.089C170.667 285.681 165.4 286.951 159.112 286.26L157.247 286.041L157.019 286.02C156.894 286.011 156.815 286.011 156.727 286.013L156.599 286.019C156.502 286.023 156.468 286.019 156.463 286.006L156.462 285.996L156.415 286.072C155.991 286.68 155.167 286.88 154.505 286.512C153.799 286.119 153.545 285.229 153.938 284.523C154.464 283.577 155.342 283.15 156.461 283.097C156.757 283.083 157.07 283.093 157.443 283.124L157.879 283.166L159.086 283.313C164.813 284.007 169.369 282.976 175.905 277.797C181.095 273.684 187.126 266.688 189.395 261.701C194.525 250.422 194.6 242.652 191.756 236.838C191.567 236.451 191.369 236.083 191.155 235.713L190.849 235.202L190.236 234.232C189.806 233.548 190.013 232.645 190.698 232.216C191.339 231.813 192.173 231.97 192.628 232.555ZM366.056 228.79C356.705 229.608 342.046 234.227 325.148 241.098L325.641 241.535C330.344 245.754 339.833 255.76 342.803 262.897L345.762 259.616C353.061 251.497 358.357 245.4 361.65 241.325L362.317 240.49C365.463 236.496 367.497 233.159 368.124 230.932L368.213 230.594C368.603 228.987 368.151 228.606 366.056 228.79ZM225.999 233.541C229.64 235.301 231.117 239.22 228.722 242.772C228.271 243.442 227.361 243.619 226.692 243.167C226.022 242.716 225.845 241.807 226.296 241.137C227.614 239.183 226.871 237.212 224.726 236.175C222.467 235.083 219.992 235.711 218.715 238.095C217.538 240.292 217.457 243.265 218.397 245.213C219.222 246.923 220.423 247.251 222.255 245.872C222.9 245.386 223.817 245.515 224.303 246.161C224.789 246.806 224.659 247.723 224.014 248.209C220.676 250.722 217.372 249.82 215.762 246.484C214.413 243.688 214.521 239.729 216.137 236.713C218.197 232.867 222.399 231.801 225.999 233.541ZM244.402 245.391C243.72 246.218 243.233 247.091 242.781 248.211C246.551 246.022 250.256 243.882 253.897 241.794L253.792 241.732L253.69 241.659C251.456 239.906 247.519 241.609 244.402 245.391ZM238.165 213.326L236.885 213.416L236.8 213.524C231.743 219.914 233.691 225.1 240.596 225.837C245.555 226.366 258.721 222.686 260.265 221.395C261.769 220.137 263.671 217.245 263.964 214.901C259.496 214.061 255.126 213.444 251.227 213.244C247.243 213.041 243.314 213.045 239.45 213.25L238.165 213.326Z" fill="#00160A"/>
<path d="M370.226 190.684C401.205 179.3 400.495 182.677 371.235 193.43C336.595 206.159 205.838 285.92 205.838 285.92C146.487 321.848 142.047 316.302 199.574 281.34L203.12 279.189C203.788 278.785 269.284 237.448 316.085 215.333C321.351 212.844 366.699 191.98 370.226 190.684Z" fill="white"/>
<path fill-rule="evenodd" clip-rule="evenodd" d="M423.716 134.01C414.117 133.519 406.624 140.979 406.547 150.739C406.481 158.917 411.173 165.86 417.895 167.246C419.666 167.611 424.774 167.611 429.204 165.125L429.571 164.923C435.158 161.76 438.958 155.742 439.466 150.791C440.367 142.014 433.316 134.501 423.716 134.01ZM408.636 150.756C408.637 150.693 408.637 150.63 408.639 150.567C408.698 150.548 408.757 150.523 408.814 150.492C416.34 146.438 420.986 143.348 422.841 141.117C424.066 139.645 424.664 137.983 424.615 136.178C425.879 136.318 427.084 136.595 428.213 136.992C428.206 137.046 428.204 137.102 428.206 137.158C428.297 139.756 427.605 141.832 426.133 143.449C424.441 145.308 422.391 147.076 420.061 148.743C417.569 150.526 414.894 152.1 412.219 153.448C411.594 153.763 411 154.049 410.443 154.308L409.635 154.674C409.52 154.725 409.412 154.772 409.314 154.815L409.073 154.916C408.777 153.599 408.625 152.203 408.636 150.756ZM409.661 156.936C410.322 158.771 411.281 160.397 412.467 161.722L413.091 161.362C422.913 155.676 429.01 151.209 431.318 148.058C433.651 144.872 434.483 142.426 433.961 140.762C433.948 140.723 433.938 140.684 433.931 140.644C432.903 139.565 431.679 138.638 430.3 137.905C430.241 140.667 429.368 142.999 427.678 144.856C425.879 146.832 423.72 148.695 421.277 150.443C418.69 152.294 415.924 153.921 413.159 155.314C412.352 155.721 411.593 156.083 410.894 156.4L410.079 156.761L409.661 156.936ZM417.482 164.989C416.248 164.62 415.099 164.015 414.064 163.213C424.175 157.366 430.466 152.758 433.003 149.293C434.578 147.143 435.584 145.21 435.993 143.485C436.501 144.435 436.887 145.448 437.134 146.505C437.081 146.613 437.046 146.732 437.032 146.858C436.778 149.301 435.519 151.725 433.217 154.14C431.007 156.457 426.239 159.8 418.954 164.123L417.482 164.989ZM421.014 165.327C423.257 165.185 426 164.527 428.217 163.284C432.339 161.073 435.649 156.91 436.9 152.898C436.295 153.804 435.571 154.698 434.729 155.582C432.46 157.961 427.901 161.196 421.014 165.327ZM409.244 147.88L408.872 148.082C410.058 141.178 415.574 136.224 422.52 136.08C422.594 137.437 422.172 138.654 421.235 139.782C419.719 141.604 415.698 144.332 409.244 147.88Z" fill="#00160A"/>
<path fill-rule="evenodd" clip-rule="evenodd" d="M499.143 113.99C499.338 114.012 499.474 114.188 499.452 114.382C499.451 114.667 499.267 114.821 499.021 114.921C498.798 115.011 498.443 114.976 498.236 115.004C495.974 115.179 494.195 113.514 493.413 111.368C492.661 109.307 492.861 106.842 494.226 105.322C494.383 105.143 494.655 105.125 494.834 105.282C495.013 105.439 496.031 105.712 495.874 105.891C494.749 107.204 493.988 108.001 495.049 111.118C496.11 114.235 498.998 113.973 499.143 113.99Z" fill="#E7EAEE"/>
<path fill-rule="evenodd" clip-rule="evenodd" d="M138.887 136.306C138.293 135.898 137.48 136.049 137.072 136.644C136.663 137.238 136.814 138.051 137.409 138.459C138.062 138.908 138.64 139.322 139.149 139.707C138.6 140.143 138.052 140.643 137.483 141.213L136.328 142.386C135.82 142.898 135.824 143.725 136.336 144.233C136.848 144.741 137.675 144.737 138.183 144.225L139.568 142.824C140.132 142.275 140.661 141.816 141.192 141.434C142.373 142.604 142.733 143.463 142.752 144.316L142.752 144.535L142.759 144.668C142.826 145.327 143.382 145.841 144.058 145.841C144.78 145.841 145.364 145.256 145.364 144.535L145.364 144.278C145.34 142.948 144.87 141.682 143.606 140.236C144.441 139.988 145.382 139.848 146.523 139.789C147.243 139.751 147.796 139.137 147.759 138.417C147.721 137.696 147.107 137.143 146.387 137.18C144.406 137.284 142.867 137.614 141.495 138.241C140.923 137.773 140.274 137.282 139.541 136.762L138.887 136.306Z" fill="#00160A"/>
<path fill-rule="evenodd" clip-rule="evenodd" d="M334.575 422.476L335.481 422.48C340.544 422.527 344.501 422.983 351.953 424.179C352.807 424.317 353.389 425.121 353.252 425.975C353.114 426.83 352.31 427.411 351.456 427.274L349.014 426.89C342.847 425.943 339.294 425.61 334.575 425.61C318.196 425.61 307.741 435.862 309.51 451.587C309.607 452.447 308.988 453.222 308.128 453.319C307.268 453.416 306.492 452.797 306.396 451.937C304.406 434.252 316.416 422.476 334.575 422.476ZM347.259 428.804L347.106 428.669C346.959 428.542 346.731 428.56 346.607 428.708C346.478 428.857 346.498 429.08 346.645 429.208L346.803 429.341C346.95 429.468 347.173 429.451 347.302 429.302C347.426 429.154 347.411 428.93 347.259 428.804ZM318.86 432.081C318.298 431.629 317.476 431.719 317.024 432.281C315.2 434.551 313.87 436.763 313.04 438.922C312.234 441.022 311.958 444.551 312.168 449.597L312.218 450.662C312.256 451.382 312.871 451.936 313.591 451.898C314.311 451.86 314.864 451.245 314.827 450.525C314.549 445.254 314.786 441.663 315.478 439.859C316.204 437.97 317.396 435.987 319.06 433.917C319.512 433.355 319.422 432.533 318.86 432.081ZM333.113 427.76C333.753 427.429 334.541 427.679 334.873 428.319C335.205 428.96 334.955 429.748 334.314 430.079C331.662 431.454 329.636 433.757 328.224 437.041C326.708 440.566 325.469 443.711 324.504 446.475C324.267 447.156 323.522 447.516 322.841 447.278C322.16 447.04 321.8 446.296 322.038 445.615C323.024 442.788 324.286 439.587 325.824 436.01C327.466 432.192 329.899 429.425 333.113 427.76ZM340.705 427.692C340.23 427.149 339.405 427.095 338.862 427.57C336.682 429.48 335.008 431.217 333.835 432.792C332.671 434.356 331.309 436.695 329.731 439.825C329.407 440.469 329.666 441.254 330.31 441.579C330.954 441.904 331.739 441.645 332.064 441C333.579 437.994 334.873 435.773 335.931 434.351C336.98 432.942 338.532 431.332 340.584 429.534C341.126 429.059 341.181 428.234 340.705 427.692ZM335.937 442.44C335.394 442.915 334.569 442.861 334.094 442.318C333.619 441.776 333.673 440.951 334.216 440.475C336.268 438.678 337.819 437.068 338.868 435.658C339.926 434.237 341.22 432.016 342.736 429.009C343.06 428.365 343.845 428.106 344.49 428.431C345.134 428.756 345.393 429.541 345.068 430.185C343.491 433.314 342.128 435.654 340.964 437.218C339.792 438.793 338.117 440.53 335.937 442.44ZM326.049 428.825C325.456 428.415 324.642 428.564 324.232 429.158C321.313 433.386 319.448 436.545 318.624 438.691C317.797 440.845 317.225 443.748 316.893 447.417C316.828 448.135 317.358 448.77 318.076 448.835C318.795 448.9 319.43 448.37 319.495 447.652C319.806 444.203 320.334 441.523 321.062 439.628C321.741 437.861 323.323 435.136 325.795 431.498L326.382 430.642C326.792 430.048 326.643 429.235 326.049 428.825Z" fill="#00160A"/>
<path fill-rule="evenodd" clip-rule="evenodd" d="M301.257 421.123L302.157 423.123L304.208 423.712C304.319 423.744 304.383 423.86 304.352 423.97C304.342 424.005 304.323 424.036 304.298 424.061L302.739 425.613L302.827 427.846C302.831 427.961 302.741 428.058 302.626 428.063C302.587 428.064 302.549 428.055 302.515 428.035L300.75 427.03C300.695 426.999 300.628 426.994 300.569 427.018L298.682 427.767C298.575 427.81 298.453 427.758 298.411 427.65C298.396 427.614 298.392 427.574 298.399 427.536L298.797 425.337L297.469 423.583C297.399 423.491 297.418 423.36 297.51 423.291C297.538 423.269 297.571 423.255 297.607 423.25L299.72 422.953L300.89 421.098C300.951 421 301.08 420.971 301.178 421.032C301.213 421.054 301.24 421.086 301.257 421.123Z" fill="#00160A"/>
<path fill-rule="evenodd" clip-rule="evenodd" d="M373.927 141.138C374.408 141.564 375.008 142.332 375.537 143.164L376.219 142.861L377.025 142.516C377.187 142.442 377.292 142.384 377.324 142.337C377.417 142.164 377.631 142.098 377.806 142.19C377.976 142.282 378.044 142.496 377.952 142.669C377.888 142.833 377.435 143.347 376.594 143.851C376.442 143.942 376.274 144.027 376.093 144.11C376.403 144.689 376.647 145.25 376.761 145.699C376.934 146.361 376.796 146.831 376.569 146.996C376.346 147.159 375.787 147.189 374.936 146.483C374.779 146.364 374.754 146.141 374.873 145.986C374.992 145.832 375.214 145.803 375.37 145.922C375.532 146.042 375.696 146.109 375.828 146.158L375.763 145.905C375.738 145.814 375.707 145.72 375.664 145.627C375.511 145.294 375.317 144.913 375.1 144.522C374.434 144.773 373.677 145.001 372.859 145.111C372.46 145.164 372.054 145.175 371.631 145.171C371.389 145.187 371.178 145.003 371.162 144.76C371.146 144.517 371.331 144.307 371.573 144.291C372.558 144.196 373.467 143.947 374.27 143.668L374.534 143.573C374.099 142.894 373.634 142.277 373.235 141.929C373.019 141.737 372.997 141.405 373.186 141.186C373.38 140.968 373.711 140.946 373.927 141.138Z" fill="#00160A"/>
<path fill-rule="evenodd" clip-rule="evenodd" d="M86.3717 317.942C85.0058 318.031 82.8397 318.379 81.0691 319.081C79.5546 319.683 79.5546 336.033 84.7326 337.337C89.8807 339.054 95.5099 336.781 94.8377 328.031C94.8257 327.848 94.6775 327.35 94.5077 326.78C94.2589 325.945 93.9638 324.953 93.9816 324.565C94.0514 323.191 93.6904 322.033 92.7376 321.306C91.7112 319.13 89.6995 317.727 86.3717 317.942ZM85.6304 333.357C83.0962 331.463 83.1852 322.626 86.0774 322.036C87.8773 323.42 89.5203 325.417 90.0745 329.266C89.4543 331.386 88.1451 332.613 87.0003 333.685C86.8778 333.8 86.7573 333.913 86.6396 334.025C86.3128 333.839 85.9761 333.612 85.6304 333.357Z" fill="white"/>
<path fill-rule="evenodd" clip-rule="evenodd" d="M82.5533 328.205C82.3236 326.831 82.4803 325.292 83.1714 323.649C83.4849 322.905 84.3089 322.299 85.3398 321.892C86.5449 321.416 88.0191 321.18 88.9487 321.119C91.2135 320.973 92.582 321.921 93.28 323.393C93.9282 323.884 94.1735 324.668 94.1256 325.597C94.1051 326.038 94.6872 327.636 94.7073 327.941C95.1623 333.858 91.3308 335.397 87.8278 334.238C86.4969 334.914 85.2132 335.026 84.2471 334.308C83.3805 333.667 82.7152 332.314 82.5628 329.929C82.5222 329.314 82.519 328.739 82.5533 328.205ZM88.7668 324.308C86.7568 324.703 86.6728 330.505 88.4279 331.742C88.6674 331.909 88.9006 332.057 89.1271 332.178C89.9755 331.413 90.6081 330.795 90.967 329.529C91.326 328.264 90.0133 325.212 88.7668 324.308Z" fill="#FFB61D"/>
<path fill-rule="evenodd" clip-rule="evenodd" d="M219.715 473.115C219.121 472.706 218.308 472.858 217.899 473.452C217.491 474.047 217.642 474.86 218.237 475.268C218.89 475.716 219.467 476.131 219.977 476.515C219.428 476.952 218.88 477.452 218.31 478.021L217.155 479.195C216.648 479.707 216.651 480.534 217.163 481.041C217.676 481.549 218.503 481.546 219.01 481.033L220.396 479.633C220.96 479.083 221.489 478.624 222.02 478.242C223.201 479.413 223.561 480.271 223.58 481.125L223.58 481.344L223.587 481.477C223.654 482.136 224.21 482.65 224.886 482.65C225.607 482.65 226.192 482.065 226.192 481.344L226.192 481.087C226.167 479.756 225.698 478.491 224.434 477.045C225.269 476.796 226.209 476.657 227.35 476.597C228.071 476.56 228.624 475.945 228.586 475.225C228.549 474.505 227.934 473.951 227.214 473.989C225.233 474.093 223.694 474.423 222.323 475.05C221.75 474.582 221.102 474.091 220.369 473.571L219.715 473.115Z" fill="#00160A"/>
<path fill-rule="evenodd" clip-rule="evenodd" d="M219.715 473.115C219.121 472.706 218.308 472.858 217.899 473.452C217.491 474.047 217.642 474.86 218.237 475.268C218.89 475.716 219.467 476.131 219.977 476.515C219.428 476.952 218.88 477.452 218.31 478.021L217.155 479.195C216.648 479.707 216.651 480.534 217.163 481.041C217.676 481.549 218.503 481.546 219.01 481.033L220.396 479.633C220.96 479.083 221.489 478.624 222.02 478.242C223.201 479.413 223.561 480.271 223.58 481.125L223.58 481.344L223.587 481.477C223.654 482.136 224.21 482.65 224.886 482.65C225.607 482.65 226.192 482.065 226.192 481.344L226.192 481.087C226.167 479.756 225.698 478.491 224.434 477.045C225.269 476.796 226.209 476.657 227.35 476.597C228.071 476.56 228.624 475.945 228.586 475.225C228.549 474.505 227.934 473.951 227.214 473.989C225.233 474.093 223.694 474.423 222.323 475.05C221.75 474.582 221.102 474.091 220.369 473.571L219.715 473.115Z" fill="#00160A"/>
<path fill-rule="evenodd" clip-rule="evenodd" d="M264.349 437.336L265.249 439.336L267.3 439.925C267.411 439.957 267.475 440.072 267.443 440.183C267.434 440.218 267.415 440.249 267.39 440.274L265.831 441.825L265.919 444.059C265.923 444.174 265.833 444.271 265.718 444.275C265.679 444.277 265.64 444.268 265.606 444.248L263.842 443.243C263.787 443.212 263.72 443.207 263.661 443.231L261.774 443.98C261.667 444.023 261.545 443.97 261.503 443.863C261.488 443.827 261.484 443.787 261.491 443.749L261.888 441.55L260.561 439.796C260.491 439.704 260.509 439.573 260.601 439.504C260.63 439.482 260.663 439.468 260.698 439.463L262.812 439.166L263.981 437.31C264.043 437.213 264.172 437.184 264.27 437.245C264.304 437.267 264.332 437.299 264.349 437.336Z" fill="#00160A"/>
<path fill-rule="evenodd" clip-rule="evenodd" d="M151.129 423.595L152.659 425.166L154.788 425.018C154.903 425.01 155.003 425.097 155.011 425.212C155.013 425.247 155.007 425.283 154.992 425.315L154.058 427.306L154.904 429.375C154.947 429.482 154.896 429.604 154.789 429.647C154.753 429.662 154.714 429.667 154.675 429.66L152.673 429.319C152.611 429.309 152.547 429.327 152.499 429.369L150.982 430.719C150.896 430.796 150.764 430.788 150.687 430.702C150.661 430.673 150.644 430.637 150.637 430.598L150.258 428.396L148.411 427.202C148.314 427.139 148.286 427.01 148.349 426.913C148.368 426.883 148.395 426.859 148.426 426.842L150.311 425.84L150.775 423.696C150.8 423.584 150.911 423.512 151.024 423.536C151.064 423.545 151.1 423.565 151.129 423.595Z" fill="#00160A"/>
<path fill-rule="evenodd" clip-rule="evenodd" d="M127.242 280.379L128.142 282.379L130.193 282.968C130.304 283 130.368 283.115 130.336 283.226C130.327 283.26 130.308 283.292 130.283 283.317L128.724 284.868L128.812 287.101C128.816 287.217 128.726 287.314 128.611 287.318C128.572 287.32 128.533 287.311 128.499 287.291L126.735 286.286C126.68 286.255 126.613 286.25 126.554 286.274L124.667 287.023C124.56 287.066 124.438 287.013 124.396 286.906C124.381 286.87 124.377 286.83 124.384 286.792L124.782 284.593L123.454 282.839C123.384 282.747 123.402 282.616 123.494 282.546C123.523 282.525 123.556 282.511 123.591 282.506L125.705 282.209L126.874 280.353C126.936 280.256 127.065 280.227 127.163 280.288C127.197 280.31 127.225 280.342 127.242 280.379Z" fill="#00160A"/>
<path fill-rule="evenodd" clip-rule="evenodd" d="M127.033 282.371L127.415 283.221L128.286 283.471C128.333 283.484 128.361 283.533 128.347 283.581C128.343 283.595 128.335 283.608 128.324 283.619L127.662 284.278L127.7 285.227C127.701 285.276 127.663 285.317 127.614 285.319C127.598 285.319 127.581 285.315 127.567 285.307L126.817 284.88C126.794 284.867 126.766 284.865 126.741 284.875L125.939 285.193C125.893 285.211 125.842 285.189 125.824 285.144C125.818 285.128 125.816 285.111 125.819 285.095L125.988 284.161L125.424 283.416C125.394 283.377 125.402 283.321 125.441 283.292C125.453 283.283 125.467 283.277 125.482 283.275L126.38 283.148L126.877 282.36C126.903 282.319 126.958 282.306 126.999 282.333C127.014 282.342 127.026 282.355 127.033 282.371Z" fill="#E7EAEE"/>
<path fill-rule="evenodd" clip-rule="evenodd" d="M20.2569 368.123L21.1569 370.123L23.2084 370.712C23.3193 370.744 23.3834 370.86 23.3516 370.97C23.3418 371.005 23.3234 371.036 23.2982 371.061L21.7395 372.613L21.8268 374.846C21.8313 374.961 21.7415 375.058 21.6262 375.063C21.5872 375.064 21.5485 375.055 21.5146 375.035L19.75 374.03C19.6949 373.999 19.6284 373.994 19.5695 374.018L17.6822 374.767C17.5749 374.81 17.4535 374.758 17.4109 374.65C17.3965 374.614 17.3925 374.574 17.3994 374.536L17.7967 372.337L16.4691 370.583C16.3995 370.491 16.4176 370.36 16.5096 370.291C16.538 370.269 16.5714 370.255 16.6066 370.25L18.7201 369.953L19.8896 368.098C19.9512 368 20.0802 367.971 20.1778 368.032C20.2126 368.054 20.2401 368.086 20.2569 368.123Z" fill="#00160A"/>
<path fill-rule="evenodd" clip-rule="evenodd" d="M110.678 188.545L111.332 189.001C112.066 189.521 114.804 192.103 115.377 192.571C116.747 191.942 118.286 191.612 120.267 191.509C120.987 191.471 121.602 192.025 121.639 192.745C121.677 193.465 121.124 194.08 120.403 194.117C119.262 194.177 118.321 194.316 117.486 194.565C118.751 196.012 119.22 197.277 119.245 198.606L119.245 198.863C119.245 199.585 118.66 200.169 117.939 200.169C117.263 200.169 116.706 199.655 116.64 198.997L116.633 198.863L116.633 198.644C116.613 197.791 116.254 196.933 115.073 195.762C114.541 196.144 114.013 196.603 113.449 197.152L112.063 198.553C111.555 199.065 110.729 199.069 110.216 198.561C109.704 198.053 109.7 197.227 110.208 196.714L111.363 195.541C111.933 194.972 112.481 194.472 113.029 194.035C112.066 191.835 108.454 189.477 108.863 188.882C109.271 188.288 110.084 188.137 110.678 188.545Z" fill="#00160A"/>
<path fill-rule="evenodd" clip-rule="evenodd" d="M362.653 339.161L364.432 340.443L366.504 339.928C366.616 339.9 366.729 339.968 366.757 340.08C366.765 340.114 366.765 340.151 366.756 340.185L366.182 342.308L367.374 344.198C367.435 344.296 367.406 344.425 367.309 344.487C367.276 344.507 367.237 344.519 367.198 344.519L365.168 344.531C365.104 344.531 365.044 344.56 365.005 344.61L363.745 346.203C363.674 346.293 363.542 346.309 363.452 346.237C363.421 346.213 363.398 346.181 363.385 346.144L362.629 344.041L360.603 343.186C360.497 343.141 360.447 343.018 360.492 342.912C360.505 342.879 360.527 342.851 360.555 342.829L362.237 341.514L362.322 339.323C362.327 339.208 362.424 339.118 362.539 339.122C362.58 339.124 362.62 339.137 362.653 339.161Z" fill="#00160A"/>
<path fill-rule="evenodd" clip-rule="evenodd" d="M383.092 257.311L383.631 259.437L385.549 260.373C385.653 260.423 385.696 260.549 385.645 260.652C385.63 260.684 385.606 260.712 385.577 260.732L383.773 261.989L383.471 264.204C383.455 264.318 383.35 264.398 383.236 264.383C383.197 264.377 383.16 264.361 383.13 264.336L381.567 263.04C381.518 263 381.454 262.984 381.392 262.997L379.403 263.407C379.29 263.43 379.179 263.358 379.156 263.245C379.148 263.206 379.151 263.167 379.164 263.13L379.938 261.033L378.935 259.076C378.882 258.973 378.923 258.847 379.025 258.795C379.057 258.778 379.092 258.771 379.128 258.772L381.261 258.846L382.735 257.222C382.812 257.136 382.945 257.13 383.03 257.208C383.06 257.235 383.082 257.271 383.092 257.311Z" fill="#00160A"/>
<path fill-rule="evenodd" clip-rule="evenodd" d="M336.548 171.757L337.087 173.882L339.005 174.819C339.108 174.869 339.152 174.994 339.101 175.098C339.085 175.13 339.062 175.157 339.033 175.178L337.228 176.435L336.926 178.65C336.911 178.764 336.805 178.844 336.691 178.828C336.652 178.823 336.616 178.807 336.586 178.782L335.023 177.486C334.974 177.446 334.909 177.43 334.847 177.442L332.858 177.853C332.745 177.876 332.635 177.803 332.611 177.69C332.604 177.652 332.607 177.613 332.62 177.576L333.393 175.479L332.39 173.522C332.338 173.419 332.378 173.293 332.481 173.24C332.513 173.224 332.548 173.216 332.583 173.218L334.716 173.292L336.19 171.668C336.268 171.582 336.4 171.576 336.486 171.653C336.516 171.681 336.538 171.717 336.548 171.757Z" fill="#00160A"/>
<path fill-rule="evenodd" clip-rule="evenodd" d="M474.053 192.586L474.847 192.515C475.744 192.442 476.557 192.401 477.297 192.392C477.942 191.03 478.909 189.788 480.36 188.435C480.888 187.943 481.714 187.972 482.206 188.5C482.698 189.028 482.669 189.854 482.141 190.346C481.305 191.125 480.674 191.837 480.194 192.564C482.093 192.859 483.266 193.526 484.139 194.53L484.304 194.726C484.768 195.279 484.696 196.102 484.143 196.566C483.625 197.001 482.869 196.965 482.394 196.503L482.303 196.405L482.163 196.237C481.599 195.596 480.772 195.17 479.115 195.032C478.953 195.666 478.844 196.358 478.765 197.141L478.603 199.105C478.544 199.823 477.913 200.358 477.194 200.298C476.475 200.238 475.941 199.607 476 198.889L476.131 197.248C476.201 196.445 476.3 195.71 476.439 195.023C475.803 195.055 475.094 195.109 474.305 195.186C473.587 195.255 472.949 194.729 472.879 194.011C472.81 193.293 473.335 192.655 474.053 192.586Z" fill="#00160A"/>
<path fill-rule="evenodd" clip-rule="evenodd" d="M368.596 282.737C368.36 283.334 367.843 284.161 367.242 284.943L367.76 285.48L368.36 286.119L368.493 286.247C368.551 286.299 368.597 286.33 368.63 286.339C368.824 286.367 368.96 286.546 368.933 286.741C368.905 286.932 368.727 287.07 368.533 287.042C368.357 287.038 367.719 286.789 366.958 286.171C366.821 286.059 366.683 285.93 366.544 285.788C366.105 286.278 365.662 286.699 365.279 286.96C364.715 287.349 364.227 287.38 363.994 287.222C363.765 287.069 363.545 286.554 363.918 285.513C363.976 285.324 364.177 285.225 364.363 285.284C364.549 285.343 364.652 285.541 364.593 285.729C364.536 285.922 364.529 286.099 364.528 286.24L364.744 286.093C364.821 286.038 364.899 285.976 364.971 285.904C365.232 285.647 365.524 285.334 365.817 284.996C365.353 284.456 364.88 283.823 364.497 283.092C364.31 282.735 364.161 282.357 364.02 281.959C363.922 281.737 364.023 281.476 364.246 281.377C364.469 281.279 364.73 281.381 364.828 281.603C365.253 282.496 365.798 283.265 366.336 283.924L366.515 284.139C367.004 283.499 367.425 282.851 367.616 282.357C367.721 282.088 368.027 281.954 368.296 282.057C368.568 282.164 368.702 282.468 368.596 282.737Z" fill="#E7EAEE"/>
<path fill-rule="evenodd" clip-rule="evenodd" d="M355.845 16.5761C356.641 16.4375 357.398 16.9703 357.537 17.7661C357.675 18.562 357.143 19.3195 356.347 19.4581C352.562 20.1174 348.006 22.3799 344.071 26.024C338.96 30.7559 335.191 37.4344 333.33 46.1521C331.83 53.1757 333.208 62.4232 337.127 70.1383C341.586 78.9159 348.754 84.8838 357.951 86.5637C367.392 88.2882 375.38 87.2172 384.302 84.0455L385.123 83.7472C385.384 83.6485 385.849 83.4691 386.432 83.2439L386.434 83.2434C388.582 82.4145 392.336 80.9661 393.414 80.6402C396.298 79.7679 398.266 79.8409 399.693 81.3613C400.245 81.9503 400.216 82.876 399.627 83.4288C399.075 83.947 398.227 83.9536 397.667 83.467L397.56 83.3631C397.139 82.9146 396.268 82.8626 394.517 83.3648L394.261 83.4403C393.311 83.7277 389.834 85.0682 387.667 85.904L387.666 85.9041L387.666 85.9042L387.665 85.9044C386.826 86.2282 386.183 86.4761 385.96 86.5577C376.323 90.0752 367.676 91.3138 357.425 89.4414C347.267 87.586 339.369 81.0098 334.519 71.4632C330.305 63.1665 328.826 53.2392 330.469 45.5414C332.455 36.2372 336.528 29.0213 342.083 23.8775C346.432 19.851 351.503 17.3325 355.845 16.5761ZM365.737 23.6424C366.53 23.4872 367.298 24.004 367.454 24.7968C367.609 25.5895 367.092 26.358 366.299 26.5133C354.444 28.835 344.91 37.8899 342.145 49.8669C341.21 53.9204 341.493 57.2163 342.411 58.4738L342.533 58.6314L342.542 58.6534L342.559 58.6401C342.888 58.3434 343.273 57.5853 343.571 56.41L343.633 56.1518C346.477 43.8337 355.869 34.2987 367.864 31.0965C368.644 30.8882 369.446 31.352 369.654 32.1325C369.863 32.913 369.399 33.7146 368.618 33.9229C357.811 36.8079 349.32 45.3163 346.595 56.3425L346.484 56.8098C345.481 61.1543 342.601 63.2282 340.268 60.4781C338.562 58.4667 338.143 54.1986 339.295 49.2089C342.322 36.0973 352.76 26.184 365.737 23.6424ZM383.329 39.6971C383.271 38.8913 382.571 38.2847 381.766 38.3422C367.53 39.3579 355.045 48.6043 350.078 62.2516C348.193 67.4301 348.081 72.0354 349.624 74.3839C351.694 77.5342 354.95 75.7472 356.573 71.2867L356.744 70.829C361.136 59.2794 371.43 51.2129 383.48 49.5308C384.28 49.4191 384.838 48.68 384.727 47.8799C384.615 47.0799 383.876 46.5218 383.076 46.6335C369.805 48.486 358.491 57.4648 353.824 70.2862L353.721 70.5601C353.202 71.8946 352.634 72.6991 352.204 72.9353L352.185 72.9481C352.181 72.9507 352.179 72.9529 352.177 72.9548C352.174 72.9579 352.172 72.9597 352.17 72.9594C352.168 72.9591 352.166 72.955 352.162 72.9453C352.153 72.9237 352.132 72.8744 352.069 72.7775L351.991 72.6502C351.142 71.1451 351.272 67.5242 352.827 63.2521C357.396 50.699 368.879 42.1944 381.974 41.2602C382.78 41.2027 383.386 40.5029 383.329 39.6971ZM389.699 53.9165C390.505 53.859 391.205 54.4656 391.262 55.2714C391.32 56.0771 390.713 56.7769 389.907 56.8344C380.726 57.4895 372.675 63.4521 369.472 72.2534C368.522 74.8624 368.345 77.093 368.685 78.2227L368.727 78.3488L368.792 78.2555C368.955 78.0078 369.139 77.652 369.319 77.1906L369.396 76.9864C372.78 67.6899 380.984 61.1793 390.606 59.8361C391.406 59.7245 392.145 60.2825 392.257 61.0826C392.369 61.8826 391.811 62.6217 391.011 62.7334C382.593 63.9084 375.398 69.5262 372.299 77.5756L372.145 77.9869C370.89 81.4344 368.177 82.9237 366.442 80.2839C365.254 78.475 365.337 75.0601 366.723 71.2529C370.324 61.3574 379.377 54.6529 389.699 53.9165ZM397.408 65.7015C397.351 64.8957 396.651 64.2891 395.845 64.3466C388.932 64.8398 382.87 69.33 380.458 75.957C379.507 78.5697 379.449 80.9475 380.328 82.2864C381.771 84.4815 384.012 83.2515 384.945 80.6866L385.073 80.3497C387.037 75.3313 391.54 71.8324 396.805 71.0976C397.605 70.9859 398.163 70.2468 398.052 69.4467C397.94 68.6466 397.201 68.0886 396.401 68.2003L396.03 68.256C390.363 69.1689 385.473 72.7661 382.938 77.9432L382.849 78.1275L382.903 77.9176C382.985 77.6121 383.085 77.2906 383.206 76.9576C385.22 71.4247 390.281 67.6764 396.053 67.2646C396.859 67.2071 397.466 66.5073 397.408 65.7015Z" fill="#00160A"/>
<path fill-rule="evenodd" clip-rule="evenodd" d="M389.699 53.9165C390.505 53.859 391.205 54.4656 391.262 55.2714C391.32 56.0771 390.713 56.7769 389.907 56.8344C380.726 57.4895 372.675 63.4521 369.472 72.2534C368.522 74.8624 368.345 77.093 368.685 78.2227L368.727 78.3488L368.792 78.2555C368.955 78.0078 369.139 77.652 369.319 77.1906L369.396 76.9864C372.78 67.6899 380.984 61.1793 390.606 59.8361C391.406 59.7245 392.145 60.2825 392.257 61.0826C392.369 61.8826 391.811 62.6217 391.011 62.7334C382.593 63.9084 375.398 69.5262 372.299 77.5756L372.145 77.9869C370.89 81.4344 368.177 82.9237 366.442 80.2839C365.254 78.475 365.337 75.0601 366.723 71.2529C370.324 61.3574 379.377 54.6529 389.699 53.9165Z" fill="#00160A"/>
<path d="M298.605 244.355C329.27 230.012 354.908 222.435 370.87 221.044C375.758 220.618 377.976 223.313 376.738 227.697C375.819 230.951 373.02 235.418 368.729 240.708C361.25 249.928 351.388 257.819 341.567 265.158C357.278 250.656 361.286 244.59 366.131 238.616L366.893 237.666C370.485 233.123 372.808 229.328 373.523 226.795L373.624 226.411C374.07 224.583 373.554 224.15 371.161 224.359C355.56 225.718 330.02 233.31 299.467 247.634C268.865 261.981 267.99 258.675 298.605 244.355Z" fill="white"/>
<path d="M158.359 197.955L158.583 198.488C160.136 202.172 161.751 205.819 163.583 209.798L164.295 211.342C164.062 211.498 163.755 211.665 163.417 211.813C162.932 212.024 162.44 212.173 162.07 212.223L161.952 212.235L161.774 212.021C160.389 210.316 158.782 207.42 157.621 204.54C157.002 203.006 156.561 201.598 156.363 200.517C156.282 200.077 156.245 199.707 156.248 199.426L156.256 199.241C156.259 199.196 156.259 199.173 156.248 199.17L156.292 199.14C156.539 198.969 157.171 198.6 158.109 198.09L158.359 197.955Z" fill="white"/>
<path fill-rule="evenodd" clip-rule="evenodd" d="M197.123 184.611C198.083 183.436 199.327 183.612 200.904 184.568L201.309 184.823L202.442 185.574C202.759 185.777 202.896 185.848 203.081 185.921C203.51 186.092 203.719 186.578 203.548 187.007C203.378 187.436 202.892 187.645 202.463 187.474L202.31 187.411C202.02 187.287 201.801 187.158 201.214 186.769L200.401 186.227C200.267 186.14 200.151 186.066 200.037 185.997C199.094 185.425 198.666 185.365 198.418 185.669C198.261 185.86 198.3 186.269 198.61 187.106L198.951 187.985C199.629 189.784 199.633 190.589 198.426 191.276C197.386 191.867 196.853 191.591 195.36 190.128L194.998 189.769C194.042 188.814 193.54 188.482 193.218 188.55C193.11 188.573 192.985 188.649 192.833 188.811C192.653 189.002 192.603 189.613 192.713 190.696L192.881 192.111C193.077 193.84 192.998 194.289 192.284 194.766C191.301 195.424 189.993 194.681 187.568 192.503C187.225 192.195 187.197 191.666 187.505 191.323C187.813 190.979 188.342 190.951 188.685 191.259C189.722 192.19 190.505 192.797 191.051 193.107L191.174 193.174L191.276 193.225L191.278 193.12L191.272 192.87C191.261 192.665 191.236 192.417 191.184 191.996L191.078 191.127C190.875 189.367 190.938 188.388 191.613 187.668C191.988 187.268 192.409 187.012 192.872 186.915C193.945 186.687 194.708 187.146 195.975 188.384L196.614 189.013C197.303 189.676 197.559 189.845 197.599 189.823C197.756 189.733 197.732 189.457 197.309 188.369L197.123 187.898C196.533 186.381 196.42 185.472 197.123 184.611Z" fill="#00160A"/>
<path fill-rule="evenodd" clip-rule="evenodd" d="M288.371 48.5671L287.577 48.6379C286.859 48.7074 286.334 49.3457 286.403 50.0636C286.445 50.4976 286.695 50.8614 287.045 51.0659L286.907 51.164C286.318 51.5803 286.178 52.3952 286.594 52.9842C287.01 53.5732 287.825 53.7132 288.414 53.2969L289.756 52.3465C289.717 52.6539 289.684 52.9712 289.655 53.2998L289.524 54.9408C289.465 55.6596 289.999 56.2907 290.718 56.3503C291.436 56.41 292.068 55.8757 292.127 55.1569L292.288 53.1932C292.331 52.773 292.382 52.3791 292.445 52.0063C292.904 52.8763 292.996 53.5465 292.899 54.1804L292.861 54.396L292.844 54.5286C292.796 55.1888 293.254 55.7915 293.92 55.9089C294.63 56.0341 295.308 55.5598 295.433 54.8495L295.477 54.5966C295.616 53.7153 295.553 52.828 295.196 51.8431C295.383 51.9772 295.543 52.1265 295.686 52.2897L295.827 52.4573L295.918 52.5553C296.393 53.0168 297.149 53.053 297.667 52.6183C298.22 52.1547 298.292 51.3309 297.828 50.7784L297.663 50.5818C297.604 50.5145 297.544 50.4486 297.483 50.3843C298.165 50.4241 298.769 49.9274 298.854 49.2398C298.942 48.524 298.433 47.8723 297.717 47.7843C296.485 47.6328 295.409 47.5988 294.418 47.6877C294.773 47.2696 295.185 46.8449 295.665 46.398C296.192 45.9062 296.221 45.0798 295.73 44.5522C295.238 44.0246 294.411 43.9956 293.884 44.4874C292.999 45.3125 292.294 46.0965 291.732 46.8916C291.515 46.6615 291.287 46.4257 291.048 46.1837L290.483 45.621C289.969 45.1157 289.142 45.1233 288.637 45.638C288.131 46.1527 288.139 46.9795 288.654 47.4848C289.011 47.8357 289.341 48.1677 289.645 48.4823C289.24 48.5027 288.816 48.531 288.371 48.5671Z" fill="#00160A"/>
<path fill-rule="evenodd" clip-rule="evenodd" d="M238.041 57.616C237.727 57.2946 237.22 57.3036 236.907 57.636C236.594 57.9685 236.595 58.4986 236.908 58.82C237.205 59.1248 237.471 59.4074 237.709 59.6703C237.206 59.8832 236.702 60.159 236.162 60.4994L235.344 61.0248C234.984 61.2538 234.906 61.7121 235.168 62.0483C235.431 62.3845 235.936 62.4714 236.295 62.2424L237.277 61.6158C237.79 61.3017 238.252 61.064 238.717 60.8972C239.423 61.8789 239.571 62.5082 239.481 63.0916L239.456 63.23L239.446 63.3152C239.413 63.7386 239.691 64.1228 240.099 64.1947C240.535 64.2715 240.953 63.9641 241.033 63.508L241.062 63.3457C241.196 62.4994 241.052 61.6469 240.446 60.5937C240.857 60.5874 241.306 60.6179 241.814 60.6829C242.257 60.7395 242.654 60.4588 242.702 60.0559C242.749 59.653 242.428 59.2805 241.986 59.2239C241.015 59.0998 240.201 59.0856 239.456 59.1863C239.149 58.8094 238.794 58.4071 238.385 57.9739L238.041 57.616Z" fill="#E7EAEE"/>
<path fill-rule="evenodd" clip-rule="evenodd" d="M69.7398 275.336L70.6398 277.336L72.6913 277.925C72.8022 277.957 72.8663 278.072 72.8345 278.183C72.8247 278.218 72.8063 278.249 72.7811 278.274L71.2224 279.825L71.3097 282.059C71.3142 282.174 71.2244 282.271 71.1091 282.275C71.0701 282.277 71.0314 282.268 70.9975 282.248L69.2329 281.243C69.1778 281.212 69.1114 281.207 69.0524 281.231L67.1651 281.98C67.0579 282.023 66.9364 281.97 66.8938 281.863C66.8794 281.827 66.8754 281.787 66.8823 281.749L67.2796 279.55L65.952 277.796C65.8824 277.704 65.9005 277.573 65.9925 277.504C66.0209 277.482 66.0543 277.468 66.0895 277.463L68.203 277.166L69.3725 275.31C69.4341 275.213 69.5631 275.184 69.6607 275.245C69.6955 275.267 69.723 275.299 69.7398 275.336Z" fill="#00160A"/>
<path fill-rule="evenodd" clip-rule="evenodd" d="M81.7398 164.336L82.6398 166.336L84.6913 166.925C84.8022 166.957 84.8663 167.072 84.8345 167.183C84.8247 167.218 84.8063 167.249 84.7811 167.274L83.2224 168.825L83.3097 171.059C83.3142 171.174 83.2244 171.271 83.1091 171.275C83.0701 171.277 83.0314 171.268 82.9975 171.248L81.2329 170.243C81.1778 170.212 81.1114 170.207 81.0524 170.231L79.1651 170.98C79.0579 171.023 78.9364 170.97 78.8938 170.863C78.8794 170.827 78.8754 170.787 78.8823 170.749L79.2796 168.55L77.952 166.796C77.8824 166.704 77.9005 166.573 77.9925 166.504C78.0209 166.482 78.0543 166.468 78.0895 166.463L80.203 166.166L81.3725 164.31C81.4341 164.213 81.5631 164.184 81.6607 164.245C81.6955 164.267 81.723 164.299 81.7398 164.336Z" fill="#00160A"/>
<path d="M108.922 341.061C109.592 340.574 110.53 340.723 111.017 341.393C111.504 342.064 90.2823 359.348 82.05 367.27L81.0932 368.198C76.3911 372.799 72.9241 376.783 70.97 379.932C68.8993 383.27 68.7665 385.082 70.1033 385.823C75.1755 388.634 82.4681 390.004 92.9127 388.273L93.9859 388.09C97.9616 387.394 127.868 380.872 127.395 381.045L127.211 381.1C126.268 381.35 114.09 385.561 109.887 386.631L109.379 386.759C102.954 388.376 97.9261 389.484 93.4029 390.233C82.3503 392.064 74.4535 391.664 68.6491 388.447C65.2997 386.591 65.5664 382.951 68.4208 378.351C70.6659 374.732 74.6149 370.261 79.9699 365.108C88.3123 357.081 100.046 347.506 108.922 341.061Z" fill="white"/>
</svg>
