<svg width="285" height="52" viewBox="0 0 285 52" fill="none" xmlns="http://www.w3.org/2000/svg">
<mask id="mask0_921_135" style="mask-type:alpha" maskUnits="userSpaceOnUse" x="0" y="0" width="285" height="52">
<rect width="285" height="52" transform="matrix(1 0 0 -1 0 52)" fill="#D9D9D9"/>
</mask>
<g mask="url(#mask0_921_135)">
<path d="M28.3763 -12H255.624C255.624 23.3462 226.97 52 191.624 52H92.3763C57.03 52 28.3763 23.3462 28.3763 -12Z" fill="#84CEC1"/>
<path d="M242.926 -12H334C292.458 -12 257.412 2.13077 246.469 21.4475C245.195 22.9777 244.011 24.5904 242.926 26.2767V-12Z" fill="#84CEC1"/>
<path d="M41.0741 -12H-50C-8.45789 -12 26.588 2.13074 37.5315 21.4474C38.8053 22.9777 39.9891 24.5904 41.0741 26.2767V-12Z" fill="#84CEC1"/>
<path d="M78.6023 34.348C77.6809 34.348 76.839 34.169 76.0767 33.8111C75.3144 33.4465 74.7079 32.9228 74.2571 32.2401C73.8064 31.5507 73.581 30.7154 73.581 29.7344C73.581 28.9787 73.7235 28.3423 74.0085 27.8253C74.2936 27.3082 74.6979 26.884 75.2216 26.5526C75.7453 26.2211 76.3651 25.9593 77.081 25.767C77.7969 25.5748 78.5857 25.4257 79.4475 25.3196C80.3026 25.2135 81.0251 25.1207 81.6151 25.0412C82.2117 24.9616 82.6657 24.8357 82.9773 24.6634C83.2888 24.491 83.4446 24.2126 83.4446 23.8281V23.4702C83.4446 22.4294 83.1331 21.6108 82.51 21.0142C81.8935 20.411 81.0052 20.1094 79.8452 20.1094C78.7448 20.1094 77.8466 20.3513 77.1506 20.8352C76.4612 21.3191 75.9773 21.8892 75.6989 22.5455L74.0185 21.9389C74.3632 21.1037 74.8405 20.4375 75.4503 19.9403C76.0602 19.4366 76.7429 19.0753 77.4986 18.8565C78.2543 18.6312 79.0199 18.5185 79.7955 18.5185C80.3788 18.5185 80.9853 18.5947 81.6151 18.7472C82.2514 18.8996 82.8414 19.1648 83.385 19.5426C83.9285 19.9138 84.3693 20.4342 84.7074 21.1037C85.0455 21.7666 85.2145 22.6084 85.2145 23.6293V34H83.4446V31.5838H83.3352C83.1231 32.0346 82.8083 32.4721 82.3906 32.8963C81.973 33.3205 81.4493 33.6686 80.8196 33.9403C80.1899 34.2121 79.4508 34.348 78.6023 34.348ZM78.8409 32.7273C79.7822 32.7273 80.5975 32.5185 81.2869 32.1009C81.9763 31.6832 82.5066 31.1297 82.8779 30.4403C83.2557 29.7443 83.4446 28.9787 83.4446 28.1435V25.9361C83.312 26.062 83.09 26.1747 82.7784 26.2741C82.4735 26.3736 82.1189 26.4631 81.7145 26.5426C81.3168 26.6155 80.919 26.6785 80.5213 26.7315C80.1236 26.7846 79.7656 26.831 79.4475 26.8707C78.5857 26.9768 77.8499 27.1425 77.2401 27.3679C76.6302 27.5933 76.1629 27.9048 75.8381 28.3026C75.5133 28.6937 75.3509 29.1974 75.3509 29.8139C75.3509 30.7419 75.6823 31.4612 76.3452 31.9716C77.0081 32.4754 77.84 32.7273 78.8409 32.7273Z" fill="white"/>
<path d="M101.198 18.7273L95.62 34H93.7308L88.1527 18.7273H90.0717L94.6058 31.6634H94.745L99.2791 18.7273H101.198Z" fill="white"/>
<path d="M104.681 34V18.7273H106.461V34H104.681ZM105.586 16.1023C105.221 16.1023 104.909 15.9796 104.651 15.7344C104.392 15.4825 104.263 15.1809 104.263 14.8295C104.263 14.4782 104.392 14.1799 104.651 13.9347C104.909 13.6828 105.221 13.5568 105.586 13.5568C105.95 13.5568 106.262 13.6828 106.52 13.9347C106.779 14.1799 106.908 14.4782 106.908 14.8295C106.908 15.1809 106.779 15.4825 106.52 15.7344C106.262 15.9796 105.95 16.1023 105.586 16.1023Z" fill="white"/>
<path d="M116.64 34.3182C115.387 34.3182 114.29 33.9867 113.349 33.3239C112.407 32.661 111.672 31.7363 111.141 30.5497C110.618 29.3632 110.356 27.9811 110.356 26.4034C110.356 24.8324 110.618 23.4569 111.141 22.277C111.672 21.0904 112.411 20.169 113.359 19.5128C114.307 18.8499 115.41 18.5185 116.67 18.5185C117.598 18.5185 118.37 18.6842 118.987 19.0156C119.603 19.3404 120.097 19.7448 120.468 20.2287C120.839 20.7126 121.128 21.1832 121.333 21.6406H121.492V13.6364H123.272V34H121.542V31.1662H121.333C121.128 31.6302 120.836 32.1075 120.458 32.598C120.08 33.0819 119.58 33.4896 118.957 33.821C118.34 34.1525 117.568 34.3182 116.64 34.3182ZM116.849 32.6974C117.836 32.6974 118.678 32.429 119.374 31.892C120.07 31.3485 120.601 30.6027 120.965 29.6548C121.336 28.7003 121.522 27.6065 121.522 26.3736C121.522 25.1539 121.34 24.0767 120.975 23.142C120.611 22.2008 120.08 21.465 119.384 20.9347C118.688 20.3977 117.843 20.1293 116.849 20.1293C115.828 20.1293 114.966 20.4077 114.264 20.9645C113.567 21.5147 113.037 22.2604 112.673 23.2017C112.315 24.143 112.136 25.2003 112.136 26.3736C112.136 27.5601 112.318 28.6307 112.683 29.5852C113.047 30.5398 113.577 31.2988 114.273 31.8622C114.976 32.419 115.835 32.6974 116.849 32.6974Z" fill="white"/>
<path d="M131.903 25.1705V34H127.667V13.6364H131.783V21.4219H131.962C132.307 20.5204 132.864 19.8144 133.633 19.304C134.402 18.7869 135.366 18.5284 136.526 18.5284C137.587 18.5284 138.512 18.7604 139.3 19.2244C140.096 19.6818 140.712 20.3414 141.15 21.2031C141.594 22.0582 141.813 23.0824 141.806 24.2756V34H137.57V25.0312C137.577 24.09 137.338 23.3575 136.854 22.8338C136.377 22.3101 135.708 22.0483 134.846 22.0483C134.269 22.0483 133.759 22.1709 133.315 22.4162C132.877 22.6615 132.532 23.0194 132.281 23.4901C132.035 23.9541 131.909 24.5142 131.903 25.1705Z" fill="white"/>
<path d="M149.495 34.2884C148.52 34.2884 147.652 34.1193 146.89 33.7812C146.127 33.4366 145.524 32.9295 145.08 32.2599C144.642 31.5838 144.424 30.742 144.424 29.7344C144.424 28.8859 144.579 28.1733 144.891 27.5966C145.203 27.0199 145.627 26.5559 146.164 26.2045C146.701 25.8532 147.311 25.5881 147.993 25.4091C148.683 25.2301 149.405 25.1042 150.161 25.0312C151.049 24.9384 151.765 24.8523 152.309 24.7727C152.852 24.6866 153.247 24.5606 153.492 24.3949C153.737 24.2292 153.86 23.9839 153.86 23.6591V23.5994C153.86 22.9697 153.661 22.4825 153.263 22.1378C152.872 21.7931 152.315 21.6207 151.593 21.6207C150.83 21.6207 150.224 21.7898 149.773 22.1278C149.322 22.4593 149.024 22.8769 148.878 23.3807L144.961 23.0625C145.159 22.1345 145.551 21.3324 146.134 20.6562C146.717 19.9735 147.47 19.4498 148.391 19.0852C149.319 18.714 150.393 18.5284 151.613 18.5284C152.461 18.5284 153.273 18.6278 154.049 18.8267C154.831 19.0256 155.524 19.3338 156.127 19.7514C156.737 20.169 157.217 20.706 157.569 21.3622C157.92 22.0118 158.096 22.7907 158.096 23.6989V34H154.078V31.8821H153.959C153.714 32.3594 153.386 32.7803 152.975 33.1449C152.564 33.5028 152.07 33.7846 151.493 33.9901C150.917 34.1889 150.25 34.2884 149.495 34.2884ZM150.708 31.3651C151.331 31.3651 151.881 31.2424 152.358 30.9972C152.836 30.7453 153.21 30.4072 153.482 29.983C153.754 29.5587 153.89 29.0781 153.89 28.5412V26.9205C153.757 27.0066 153.575 27.0862 153.343 27.1591C153.117 27.2254 152.862 27.2884 152.577 27.348C152.292 27.401 152.007 27.4508 151.722 27.4972C151.437 27.5369 151.178 27.5734 150.946 27.6065C150.449 27.6794 150.015 27.7955 149.644 27.9545C149.273 28.1136 148.984 28.3291 148.779 28.6009C148.573 28.866 148.471 29.1974 148.471 29.5952C148.471 30.1719 148.679 30.6127 149.097 30.9176C149.521 31.2159 150.058 31.3651 150.708 31.3651Z" fill="white"/>
<path d="M161.461 34V13.6364H165.697V21.2926H165.826C166.012 20.8816 166.28 20.464 166.632 20.0398C166.99 19.6089 167.454 19.2509 168.024 18.9659C168.601 18.6742 169.316 18.5284 170.172 18.5284C171.285 18.5284 172.313 18.8201 173.254 19.4034C174.195 19.9801 174.948 20.8518 175.511 22.0185C176.074 23.1785 176.356 24.6335 176.356 26.3835C176.356 28.0871 176.081 29.5256 175.531 30.6989C174.987 31.8655 174.245 32.7505 173.304 33.3537C172.369 33.9503 171.322 34.2486 170.162 34.2486C169.34 34.2486 168.64 34.1127 168.064 33.8409C167.494 33.5691 167.026 33.2277 166.662 32.8168C166.297 32.3991 166.019 31.9782 165.826 31.554H165.637V34H161.461ZM165.608 26.3636C165.608 27.2718 165.734 28.0639 165.985 28.7401C166.237 29.4162 166.602 29.9432 167.079 30.321C167.556 30.6922 168.136 30.8778 168.819 30.8778C169.509 30.8778 170.092 30.6889 170.569 30.3111C171.047 29.9266 171.408 29.3963 171.653 28.7202C171.905 28.0374 172.031 27.2519 172.031 26.3636C172.031 25.482 171.908 24.7064 171.663 24.0369C171.418 23.3674 171.056 22.8437 170.579 22.4659C170.102 22.0881 169.515 21.8991 168.819 21.8991C168.13 21.8991 167.547 22.0814 167.069 22.446C166.599 22.8106 166.237 23.3277 165.985 23.9972C165.734 24.6667 165.608 25.4555 165.608 26.3636Z" fill="white"/>
<path d="M179.183 34V18.7273H183.418V34H179.183ZM181.31 16.7585C180.681 16.7585 180.14 16.5497 179.69 16.1321C179.246 15.7079 179.023 15.2008 179.023 14.6108C179.023 14.0275 179.246 13.527 179.69 13.1094C180.14 12.6851 180.681 12.473 181.31 12.473C181.94 12.473 182.477 12.6851 182.921 13.1094C183.372 13.527 183.597 14.0275 183.597 14.6108C183.597 15.2008 183.372 15.7079 182.921 16.1321C182.477 16.5497 181.94 16.7585 181.31 16.7585Z" fill="white"/>
<path d="M194.935 18.7273V21.9091H185.738V18.7273H194.935ZM187.826 15.0682H192.061V29.3068C192.061 29.6979 192.121 30.0028 192.24 30.2216C192.36 30.4337 192.525 30.5829 192.738 30.669C192.956 30.7552 193.208 30.7983 193.493 30.7983C193.692 30.7983 193.891 30.7817 194.09 30.7486C194.289 30.7088 194.441 30.679 194.547 30.6591L195.213 33.8111C195.001 33.8774 194.703 33.9536 194.319 34.0398C193.934 34.1326 193.467 34.1889 192.917 34.2088C191.896 34.2486 191.001 34.1127 190.232 33.8011C189.47 33.4896 188.876 33.0057 188.452 32.3494C188.028 31.6932 187.819 30.8646 187.826 29.8636V15.0682Z" fill="white"/>
<path d="M210.21 23.0824L206.332 23.321C206.266 22.9896 206.124 22.6913 205.905 22.4261C205.686 22.1544 205.398 21.9389 205.04 21.7798C204.688 21.6141 204.268 21.5312 203.777 21.5312C203.121 21.5312 202.567 21.6705 202.116 21.9489C201.666 22.2206 201.44 22.5852 201.44 23.0426C201.44 23.4072 201.586 23.7154 201.878 23.9673C202.17 24.2192 202.67 24.4214 203.379 24.5739L206.143 25.1307C207.628 25.4356 208.735 25.9261 209.465 26.6023C210.194 27.2784 210.558 28.1667 210.558 29.267C210.558 30.268 210.263 31.1463 209.673 31.902C209.09 32.6577 208.288 33.2476 207.267 33.6719C206.253 34.0895 205.083 34.2983 203.757 34.2983C201.735 34.2983 200.125 33.8774 198.925 33.0355C197.732 32.187 197.032 31.0336 196.827 29.5753L200.993 29.3565C201.119 29.973 201.424 30.4437 201.908 30.7685C202.392 31.0866 203.011 31.2457 203.767 31.2457C204.509 31.2457 205.106 31.1032 205.557 30.8182C206.014 30.5265 206.246 30.152 206.253 29.6946C206.246 29.3101 206.084 28.9953 205.766 28.75C205.447 28.4981 204.957 28.3059 204.294 28.1733L201.649 27.6463C200.158 27.348 199.047 26.831 198.318 26.0952C197.596 25.3594 197.234 24.4214 197.234 23.2812C197.234 22.3002 197.5 21.455 198.03 20.7457C198.567 20.0365 199.319 19.4896 200.287 19.1051C201.261 18.7206 202.402 18.5284 203.707 18.5284C205.636 18.5284 207.154 18.9361 208.261 19.7514C209.375 20.5668 210.025 21.6771 210.21 23.0824Z" fill="white"/>
</g>
</svg>
